<?xml version="1.0" encoding="UTF-8"?>
<svg version="1.1" xmlns="http://www.w3.org/2000/svg" width="512" height="512">
<path d="M0 0 C1.10248774 -0.00382555 2.20497547 -0.00765109 3.34087193 -0.01159257 C7.01856702 -0.02187433 10.69610459 -0.01793955 14.37380981 -0.01396179 C17.01735955 -0.01831093 19.66089792 -0.02343065 22.30444336 -0.02944946 C28.72985212 -0.04216981 35.15521904 -0.04399349 41.58063827 -0.0416492 C46.80582987 -0.03986291 52.0310088 -0.04162235 57.25619888 -0.04587364 C58.37362714 -0.04676643 58.37362714 -0.04676643 59.51362971 -0.04767724 C61.02722286 -0.04888905 62.54081601 -0.05010319 64.05440916 -0.05131962 C78.23472631 -0.06218488 92.41501964 -0.06003747 106.59533812 -0.05393478 C119.5527503 -0.04876644 132.51008727 -0.06002066 145.46748458 -0.07903299 C158.78954592 -0.09842974 172.11157172 -0.10666418 185.43364727 -0.10290974 C192.90600442 -0.10100049 200.37829757 -0.10345827 207.85064316 -0.11762428 C214.21194036 -0.12956249 220.57313416 -0.13091572 226.93443285 -0.11883412 C230.17636229 -0.11296247 233.41806473 -0.11343879 236.6599884 -0.12383652 C240.18316726 -0.13431934 243.70584284 -0.12619035 247.22900391 -0.11352539 C248.24137961 -0.12089968 249.25375532 -0.12827396 250.29680908 -0.13587171 C266.23894836 -0.0158053 282.1485601 6.76707239 293.65969849 17.80561829 C305.47932131 29.90180616 312.33919015 46.51336399 319.83401489 61.45222473 C320.71968076 63.2172422 321.60847391 64.98068935 322.49734497 66.74409485 C340.56978944 102.77666916 357.28072626 140.99103662 366.7414856 180.26069641 C367.00397095 181.28042542 367.00397095 181.28042542 367.27175903 182.320755 C369.26872355 190.09705347 370.02381734 197.63827888 370.1164856 205.63569641 C370.13050415 206.45634583 370.14452271 207.27699524 370.15896606 208.12251282 C370.103747 215.11551183 368.94808752 221.57699137 364.4289856 227.07319641 C356.56258002 233.47608467 350.79459834 235.26135347 340.7414856 234.26069641 C316.15095022 227.81170797 295.98535121 207.91813893 277.7414856 191.26069641 C276.80820435 190.42022766 275.8749231 189.57975891 274.9133606 188.71382141 C267.27146405 181.80752196 259.97138635 174.59554734 252.7414856 167.26069641 C252.53169067 167.80669495 252.32189575 168.35269348 252.10574341 168.91523743 C238.23834409 204.67246777 219.25199761 236.37793607 188.7414856 260.26069641 C188.18960571 260.69430481 187.63772583 261.12791321 187.06912231 261.57466125 C170.33980818 274.60933057 143.71930194 293.22354404 121.75320435 292.69819641 C115.07636889 291.72827998 108.89963244 288.91237501 102.7414856 286.26069641 C102.05103149 285.96630676 101.36057739 285.67191711 100.64920044 285.36860657 C52.96441636 264.75027364 18.50323123 226.32017241 -0.93722534 178.52973938 C-2.4183587 174.78775113 -3.85403424 171.03213872 -5.2585144 167.26069641 C-6.14990112 168.15993835 -6.14990112 168.15993835 -7.05929565 169.0773468 C-9.30117547 171.33644168 -11.54542971 173.59314514 -13.79122925 175.8483429 C-14.75602899 176.81811914 -15.71992336 177.78879711 -16.68283081 178.76045227 C-22.36472922 184.49260681 -28.1263908 190.01489805 -34.2585144 195.26069641 C-35.803327 196.67393191 -37.34546765 198.0901005 -38.8835144 199.51069641 C-45.08498254 205.0948668 -51.5979904 210.23894616 -58.2585144 215.26069641 C-58.79879272 215.66852356 -59.33907104 216.07635071 -59.89572144 216.49653625 C-72.8378694 226.14634846 -88.54233156 236.27925434 -105.2585144 234.26069641 C-111.29581266 232.3902195 -115.78948456 229.57108654 -119.3210144 224.29975891 C-130.18314432 200.67462635 -116.93354795 167.78902089 -108.74679565 145.26850891 C-62.97992824 21.8190608 -62.97992824 21.8190608 -23.62960815 3.52241516 C-15.76945099 0.58054869 -8.34592556 -0.03101967 0 0 Z " fill="#43CDFD" transform="translate(132.25851440429688,211.7393035888672)"/>
<path d="M0 0 C1.6750972 -0.00707038 3.35018802 -0.01582006 5.02526855 -0.02610779 C9.54611296 -0.04848775 14.06660539 -0.04568865 18.58748388 -0.03678632 C22.37447453 -0.03165233 26.16140043 -0.03898857 29.9483844 -0.04625839 C38.88915052 -0.06322168 47.82974582 -0.05972817 56.77050781 -0.04296875 C65.96547297 -0.02605464 75.15996311 -0.0418803 84.3548764 -0.07419163 C92.27629043 -0.10096364 100.1975573 -0.10814294 108.119012 -0.09967655 C112.8382771 -0.09476903 117.55725668 -0.09684418 122.27648544 -0.11746407 C126.71730689 -0.13594102 131.15745015 -0.12971735 135.59823608 -0.10526466 C137.21823928 -0.10029442 138.83829525 -0.10364685 140.45825577 -0.11641312 C153.98679242 -0.21450697 165.43349275 2.19055616 175.94970703 11.30688477 C183.79337857 19.17817486 189.37060806 28.9126402 189.41845703 40.22094727 C189.3558141 41.65949742 189.28056017 43.09790431 189.16845703 44.53344727 C190.27962891 44.48704102 191.39080078 44.44063477 192.53564453 44.39282227 C204.28898867 44.04235122 212.2187921 44.9201137 221.48095703 52.78344727 C228.23596809 59.24153476 233.0898925 66.31056977 233.45898438 75.91137695 C233.48552834 77.59255066 233.5000247 79.2739447 233.50439453 80.95532227 C233.51105133 81.85534973 233.51770813 82.7553772 233.52456665 83.68267822 C233.53466116 85.58213264 233.53938466 87.4816223 233.5390625 89.38110352 C233.54342246 92.26061734 233.57973916 95.13858048 233.61767578 98.01782227 C233.70518948 111.90073852 232.45176656 120.96627868 222.53955078 131.33422852 C214.9797371 138.34604911 207.49962609 140.88332896 197.29345703 140.65844727 C196.50970703 140.64942383 195.72595703 140.64040039 194.91845703 140.63110352 C193.00165649 140.6077279 191.08501512 140.5718638 189.16845703 140.53344727 C189.21486328 141.12770508 189.26126953 141.72196289 189.30908203 142.33422852 C189.83280513 154.36115543 184.97673971 163.59539475 177.16845703 172.53344727 C169.11361271 180.18393194 159.27180085 184.64288693 148.23167419 184.68061829 C147.53364671 184.68429497 146.83561923 184.68797166 146.1164394 184.69175977 C143.77756996 184.70277212 141.43874498 184.70663632 139.09985352 184.71044922 C137.42255005 184.71671585 135.74524796 184.72336283 134.06794739 184.73036194 C128.55849165 184.75138571 123.0490357 184.76176462 117.53955078 184.77172852 C115.64035592 184.77577708 113.7411612 184.77989403 111.84196663 184.7840786 C102.91615264 184.80312871 93.99034689 184.81735859 85.06451648 184.82569057 C74.77550716 184.83545447 64.48671346 184.86175263 54.19778007 184.90219146 C46.23665738 184.93240259 38.27559631 184.94716429 30.31441742 184.95047158 C25.56382269 184.95281689 20.81345835 184.96170917 16.06292534 184.98693275 C11.58867725 185.01030525 7.11480972 185.01441003 2.64051628 185.00417137 C1.00514964 185.00367808 -0.63023632 185.00993707 -2.26554489 185.02372742 C-16.84391905 185.13971015 -27.60931098 182.33718913 -38.83154297 172.53344727 C-45.78241981 165.21518793 -51.02809367 155.47130036 -50.89404297 145.28344727 C-50.88501953 144.39141602 -50.87599609 143.49938477 -50.86669922 142.58032227 C-50.85509766 141.90485352 -50.84349609 141.22938477 -50.83154297 140.53344727 C-51.65396484 140.57985352 -52.47638672 140.62625977 -53.32373047 140.67407227 C-64.05535982 141.02105335 -70.92443771 139.30284467 -79.14404297 132.28344727 C-85.89905402 125.82535977 -90.75297843 118.75632476 -91.12207031 109.15551758 C-91.14861428 107.47434388 -91.16311064 105.79294983 -91.16748047 104.11157227 C-91.17413727 103.2115448 -91.18079407 102.31151733 -91.18765259 101.38421631 C-91.1977471 99.48476189 -91.2024706 97.58527223 -91.20214844 95.68579102 C-91.2065084 92.80627719 -91.2428251 89.92831405 -91.28076172 87.04907227 C-91.36827541 73.16615602 -90.1148525 64.10061585 -80.20263672 53.73266602 C-73.36654922 47.39211039 -66.39024053 44.21592283 -56.95654297 44.40844727 C-55.80412109 44.42649414 -54.65169922 44.44454102 -53.46435547 44.46313477 C-52.16111328 44.49793945 -52.16111328 44.49793945 -50.83154297 44.53344727 C-50.91855469 43.67686523 -50.91855469 43.67686523 -51.00732422 42.80297852 C-51.62441195 31.71303038 -47.25006378 22.04853868 -40.05810547 13.75219727 C-28.42396219 2.15887554 -15.76753196 -0.07046424 0 0 Z " fill="#BBE9F8" transform="translate(186.83154296875,7.466552734375)"/>
<path d="M0 0 C1.6750972 -0.00707038 3.35018802 -0.01582006 5.02526855 -0.02610779 C9.54611296 -0.04848775 14.06660539 -0.04568865 18.58748388 -0.03678632 C22.37447453 -0.03165233 26.16140043 -0.03898857 29.9483844 -0.04625839 C38.88915052 -0.06322168 47.82974582 -0.05972817 56.77050781 -0.04296875 C65.96547297 -0.02605464 75.15996311 -0.0418803 84.3548764 -0.07419163 C92.27629043 -0.10096364 100.1975573 -0.10814294 108.119012 -0.09967655 C112.8382771 -0.09476903 117.55725668 -0.09684418 122.27648544 -0.11746407 C126.71730689 -0.13594102 131.15745015 -0.12971735 135.59823608 -0.10526466 C137.21823928 -0.10029442 138.83829525 -0.10364685 140.45825577 -0.11641312 C153.98679242 -0.21450697 165.43349275 2.19055616 175.94970703 11.30688477 C183.79337857 19.17817486 189.37060806 28.9126402 189.41845703 40.22094727 C189.3558141 41.65949742 189.28056017 43.09790431 189.16845703 44.53344727 C190.27962891 44.48704102 191.39080078 44.44063477 192.53564453 44.39282227 C204.28898867 44.04235122 212.2187921 44.9201137 221.48095703 52.78344727 C228.23596809 59.24153476 233.0898925 66.31056977 233.45898438 75.91137695 C233.48552834 77.59255066 233.5000247 79.2739447 233.50439453 80.95532227 C233.51105133 81.85534973 233.51770813 82.7553772 233.52456665 83.68267822 C233.53466116 85.58213264 233.53938466 87.4816223 233.5390625 89.38110352 C233.54342246 92.26061734 233.57973916 95.13858048 233.61767578 98.01782227 C233.70518948 111.90073852 232.45176656 120.96627868 222.53955078 131.33422852 C214.9797371 138.34604911 207.49962609 140.88332896 197.29345703 140.65844727 C196.50970703 140.64942383 195.72595703 140.64040039 194.91845703 140.63110352 C193.00165649 140.6077279 191.08501512 140.5718638 189.16845703 140.53344727 C189.21486328 141.12770508 189.26126953 141.72196289 189.30908203 142.33422852 C189.83280513 154.36115543 184.97673971 163.59539475 177.16845703 172.53344727 C169.11361271 180.18393194 159.27180085 184.64288693 148.23167419 184.68061829 C147.53364671 184.68429497 146.83561923 184.68797166 146.1164394 184.69175977 C143.77756996 184.70277212 141.43874498 184.70663632 139.09985352 184.71044922 C137.42255005 184.71671585 135.74524796 184.72336283 134.06794739 184.73036194 C128.55849165 184.75138571 123.0490357 184.76176462 117.53955078 184.77172852 C115.64035592 184.77577708 113.7411612 184.77989403 111.84196663 184.7840786 C102.91615264 184.80312871 93.99034689 184.81735859 85.06451648 184.82569057 C74.77550716 184.83545447 64.48671346 184.86175263 54.19778007 184.90219146 C46.23665738 184.93240259 38.27559631 184.94716429 30.31441742 184.95047158 C25.56382269 184.95281689 20.81345835 184.96170917 16.06292534 184.98693275 C11.58867725 185.01030525 7.11480972 185.01441003 2.64051628 185.00417137 C1.00514964 185.00367808 -0.63023632 185.00993707 -2.26554489 185.02372742 C-16.84391905 185.13971015 -27.60931098 182.33718913 -38.83154297 172.53344727 C-45.78241981 165.21518793 -51.02809367 155.47130036 -50.89404297 145.28344727 C-50.88501953 144.39141602 -50.87599609 143.49938477 -50.86669922 142.58032227 C-50.85509766 141.90485352 -50.84349609 141.22938477 -50.83154297 140.53344727 C-51.65396484 140.57985352 -52.47638672 140.62625977 -53.32373047 140.67407227 C-64.05535982 141.02105335 -70.92443771 139.30284467 -79.14404297 132.28344727 C-85.89905402 125.82535977 -90.75297843 118.75632476 -91.12207031 109.15551758 C-91.14861428 107.47434388 -91.16311064 105.79294983 -91.16748047 104.11157227 C-91.17413727 103.2115448 -91.18079407 102.31151733 -91.18765259 101.38421631 C-91.1977471 99.48476189 -91.2024706 97.58527223 -91.20214844 95.68579102 C-91.2065084 92.80627719 -91.2428251 89.92831405 -91.28076172 87.04907227 C-91.36827541 73.16615602 -90.1148525 64.10061585 -80.20263672 53.73266602 C-73.36654922 47.39211039 -66.39024053 44.21592283 -56.95654297 44.40844727 C-55.80412109 44.42649414 -54.65169922 44.44454102 -53.46435547 44.46313477 C-52.16111328 44.49793945 -52.16111328 44.49793945 -50.83154297 44.53344727 C-50.91855469 43.67686523 -50.91855469 43.67686523 -51.00732422 42.80297852 C-51.62441195 31.71303038 -47.25006378 22.04853868 -40.05810547 13.75219727 C-28.42396219 2.15887554 -15.76753196 -0.07046424 0 0 Z M-22.64404297 31.53344727 C-23.22798828 32.21407227 -23.81193359 32.89469727 -24.41357422 33.59594727 C-26.65847171 36.6633554 -26.95864795 39.26326357 -26.97871399 42.94720459 C-26.98586929 43.8499411 -26.9930246 44.75267761 -27.00039673 45.68276978 C-27.00308563 46.67086639 -27.00577454 47.65896301 -27.00854492 48.67700195 C-27.01511612 49.7195816 -27.02168732 50.76216125 -27.02845764 51.83633423 C-27.04819667 55.29266428 -27.05985456 58.74895088 -27.06982422 62.20532227 C-27.07389975 63.38535072 -27.07797527 64.56537918 -27.0821743 65.78116608 C-27.10303749 72.02671636 -27.11733823 78.27224466 -27.12670898 84.51782227 C-27.13777461 90.9685737 -27.17217602 97.41898031 -27.21188068 103.86960983 C-27.23802584 108.82990155 -27.24639898 113.79011083 -27.24999046 118.75046539 C-27.25486172 121.12829162 -27.26649094 123.50611403 -27.28502846 125.88387299 C-27.30937454 129.21363147 -27.30846271 132.54249421 -27.30151367 135.87231445 C-27.31432373 136.85231415 -27.32713379 137.83231384 -27.34033203 138.8420105 C-27.28683708 145.88355957 -25.90215171 150.21851052 -21.01513672 155.49438477 C-20.43892578 155.96102539 -19.86271484 156.42766602 -19.26904297 156.90844727 C-18.69025391 157.39055664 -18.11146484 157.87266602 -17.51513672 158.36938477 C-13.96738746 160.82235293 -10.66764993 160.66317132 -6.49508667 160.67388916 C-5.52683966 160.67834584 -5.52683966 160.67834584 -4.5390321 160.68289256 C-2.37203697 160.69157684 -0.2050971 160.6930876 1.96191406 160.69458008 C3.51423765 160.69920859 5.0665601 160.70423329 6.61888123 160.70962524 C10.84024719 160.72275142 15.06159725 160.72919507 19.28298044 160.7336359 C21.92184952 160.73656736 24.56071425 160.74067239 27.19958115 160.74514008 C35.46011273 160.75881796 43.72063438 160.76848218 51.9811765 160.77234197 C61.50836436 160.77681822 71.03540842 160.79434473 80.56255257 160.82334256 C87.93084859 160.84498851 95.29910425 160.85504786 102.66743171 160.85638309 C107.06582089 160.85742938 111.46407495 160.8632993 115.86243057 160.8812027 C120.00420476 160.89773295 124.14574302 160.89981497 128.28753853 160.89106369 C129.80279613 160.89029586 131.31806668 160.89460241 132.83329201 160.90452194 C142.06828285 160.96140398 150.8805412 161.01249574 158.54345703 155.22094727 C165.20719387 148.39855003 165.31837331 140.98705445 165.32958984 132.00488281 C165.33455475 131.05139954 165.33951965 130.09791626 165.34463501 129.11553955 C165.35921761 125.96707431 165.36605195 122.81865945 165.37158203 119.67016602 C165.37733645 117.47687275 165.38309415 115.2835795 165.38885498 113.09028625 C165.3993537 108.49296841 165.40520384 103.89566799 165.40869141 99.29833984 C165.4141754 93.41726812 165.43820635 87.536428 165.46666336 81.65542889 C165.48531712 77.12487623 165.49049679 72.59437908 165.49202728 68.06379128 C165.49504786 65.89613389 165.50305623 63.72847734 165.51621246 61.56085777 C165.53333087 58.52379255 165.5313785 55.48728965 165.52490234 52.45019531 C165.53872452 51.11653679 165.53872452 51.11653679 165.55282593 49.75593567 C165.4961416 41.23903897 163.26774869 34.63273892 157.16845703 28.53344727 C151.37338068 25.0322553 146.24870425 24.4101269 139.57130432 24.39300537 C138.92198077 24.39003425 138.27265721 24.38706313 137.60365719 24.38400197 C135.43587218 24.37535575 133.26814266 24.37381022 131.1003418 24.37231445 C129.54285566 24.36768352 127.98537066 24.36265849 126.42788696 24.35726929 C122.20270874 24.34417287 117.97754639 24.33770613 113.75235105 24.33325863 C111.11181949 24.33032444 108.47129224 24.32621905 105.83076286 24.32175446 C97.56650678 24.30808898 89.30226057 24.29841675 81.03799397 24.29455256 C71.50230629 24.29006907 61.96676175 24.27250368 52.43111759 24.24355197 C45.05603414 24.22193784 37.68099098 24.21184849 30.3058762 24.21051145 C25.90258236 24.20946355 21.49942326 24.20355864 17.0961628 24.18569183 C12.9551921 24.16921499 8.81445752 24.1670537 4.67346573 24.17583084 C3.15533376 24.17660133 1.63718911 24.1722569 0.11908913 24.16237259 C-1.95668998 24.14965153 -4.03163289 24.15552973 -6.10740662 24.16595459 C-7.26790244 24.16448803 -8.42839827 24.16302147 -9.62406063 24.16151047 C-15.27011417 24.81622181 -19.04340416 27.24194097 -22.64404297 31.53344727 Z " fill="#4ACCFD" transform="translate(186.83154296875,7.466552734375)"/>
<path d="M0 0 C1.24302383 -0.00350464 2.48604767 -0.00700928 3.76673889 -0.01062012 C7.165793 -0.01790155 10.56460279 -0.01621168 13.96364307 -0.00986195 C17.53173451 -0.00478151 21.09981585 -0.00949948 24.66790771 -0.01263428 C30.66322694 -0.01626987 36.65849686 -0.0114875 42.65380859 -0.00195312 C49.56451615 0.00891079 56.47510549 0.00541926 63.38581014 -0.00560594 C69.33509299 -0.01471421 75.28434046 -0.01594625 81.23362803 -0.0107286 C84.77962473 -0.00762573 88.3255661 -0.00715247 91.87155914 -0.01380157 C95.83238732 -0.02070982 99.7930858 -0.0111047 103.75390625 0 C104.91477249 -0.00404846 106.07563873 -0.00809692 107.27168274 -0.01226807 C119.28991168 0.04988552 129.24865015 1.63259921 138.45605469 9.89160156 C145.89594977 17.92967917 147.74478518 27.24645042 147.78100586 37.95336914 C147.78738571 39.24193314 147.79376556 40.53049713 147.80033875 41.85810852 C147.80186792 43.24817873 147.80298161 44.63824945 147.80371094 46.02832031 C147.80693013 47.47409599 147.81029469 48.91987135 147.813797 50.36564636 C147.81976511 53.38903559 147.82163931 56.41239632 147.82104492 59.43579102 C147.82094347 63.28532569 147.83458895 67.13467525 147.85181713 70.98416615 C147.86300659 73.96897703 147.864962 76.95374414 147.8644352 79.93857384 C147.86560513 81.35656051 147.86997057 82.7745487 147.87776756 84.19251442 C147.94428047 97.53794405 147.25685647 108.7625229 138.00292969 119.07910156 C128.18891254 128.16277325 116.81815994 128.40658235 104.14208984 128.43579102 C102.89731369 128.44236221 101.65253754 128.44893341 100.37004089 128.45570374 C96.26329297 128.47536618 92.15658391 128.48709001 88.04980469 128.49707031 C86.63005937 128.50112214 85.21031424 128.50523918 83.79056931 128.50942039 C77.12118408 128.5284387 70.45180972 128.54267961 63.78240263 128.55103236 C56.10596415 128.560808 48.42981374 128.5871499 40.75347674 128.62753326 C34.80334794 128.65775311 28.85330152 128.67250656 22.90309751 128.67581338 C19.35647769 128.67815608 15.81016683 128.68701497 12.26362991 128.71227455 C8.30505515 128.74001802 4.34685657 128.73570618 0.38818359 128.72875977 C-1.35615211 128.74797485 -1.35615211 128.74797485 -3.13572693 128.76757812 C-14.36752619 128.69587373 -21.50132513 125.12172174 -29.36425781 117.25878906 C-35.11989587 111.19203543 -36.82043634 104.3148666 -36.76831055 96.1496582 C-36.7751738 95.38266098 -36.78203705 94.61566376 -36.78910828 93.82542419 C-36.80726274 91.31473764 -36.80355528 88.80468278 -36.79785156 86.29394531 C-36.80241878 84.53331807 -36.80772596 82.77269261 -36.81373596 81.0120697 C-36.82264474 77.33129612 -36.82026944 73.65073977 -36.81030273 69.9699707 C-36.79881518 65.27155976 -36.81903248 60.57390066 -36.84821987 55.87558842 C-36.86663531 52.24225668 -36.86627882 48.60910335 -36.86058235 44.97573662 C-36.86042979 43.24431745 -36.86641954 41.51288569 -36.87887383 39.78151131 C-36.95552586 27.38001907 -35.95879421 18.4176187 -27.22363281 9.04785156 C-18.9083523 1.04701444 -11.30664388 -0.03915822 0 0 Z " fill="#BEE9F9" transform="translate(200.3642578125,255.7412109375)"/>
<path d="M0 0 C18.0880268 -0.6590779 34.66726501 3.75349683 48.4375 16.125 C61.17384036 28.33844692 68.29340841 45.64613735 76.0925293 61.19152832 C76.97819517 62.95654579 77.86698831 64.71999294 78.75585938 66.48339844 C96.82830385 102.51597275 113.53924066 140.73034021 123 180 C123.26248535 181.019729 123.26248535 181.019729 123.53027344 182.06005859 C125.52723795 189.83635705 126.28233174 197.37758247 126.375 205.375 C126.38901855 206.19564941 126.40303711 207.01629883 126.41748047 207.86181641 C126.3622614 214.85481542 125.20660192 221.31629496 120.6875 226.8125 C112.82109443 233.21538826 107.05311275 235.00065706 97 234 C72.40817129 227.55067237 52.24579439 207.65673609 34 191 C33.07832031 190.17113281 32.15664063 189.34226562 31.20703125 188.48828125 C28.6785179 186.20026058 26.17763547 183.88849724 23.68847656 181.55810547 C22.49384683 180.4557158 21.28606595 179.36749849 20.06933594 178.28955078 C18.06244927 176.51078574 16.09291962 174.69668198 14.125 172.875 C13.16835449 172.05092651 13.16835449 172.05092651 12.19238281 171.21020508 C10.42362756 169.53413893 9.12627768 168.16363118 8 166 C8.00182909 162.76653482 8.9465428 160.03263991 10 157 C10.33540405 155.68442843 10.65775867 154.36543734 10.96484375 153.04296875 C11.44630859 151.13451172 11.44630859 151.13451172 11.9375 149.1875 C12.11007324 148.49736816 12.28264648 147.80723633 12.46044922 147.09619141 C13.23848025 143.98910541 14.02991193 140.88786439 14.85546875 137.79296875 C25.18167124 98.63726693 23.39214963 55.15606359 10.4375 17 C10.15688721 16.16871582 9.87627441 15.33743164 9.5871582 14.48095703 C7.4652523 8.53715676 4.59346392 4.36379073 0 0 Z " fill="#4E67AF" transform="translate(376,212)"/>
<path d="M0 0 C-0.7425 0.639375 -1.485 1.27875 -2.25 1.9375 C-17.97741939 17.72592137 -21.20633192 53.86893012 -21.1875 74.9375 C-21.12001092 102.8962211 -18.49337736 130.91864429 -9.70410156 157.60644531 C-9.32656738 158.79125488 -9.32656738 158.79125488 -8.94140625 160 C-8.71138916 160.680625 -8.48137207 161.36125 -8.24438477 162.0625 C-7.90965585 164.7162549 -8.54327637 165.76868 -10 168 C-11.37950392 169.55259426 -12.81657041 171.05483093 -14.2890625 172.51953125 C-15.14886719 173.37740234 -16.00867188 174.23527344 -16.89453125 175.11914062 C-17.79558594 176.00794922 -18.69664063 176.89675781 -19.625 177.8125 C-20.50285156 178.68970703 -21.38070312 179.56691406 -22.28515625 180.47070312 C-26.82945914 184.98462063 -31.43859506 189.36204885 -36.29736328 193.53588867 C-38.45381507 195.39023931 -40.53587521 197.32040837 -42.625 199.25 C-48.82646813 204.83417039 -55.339476 209.97824975 -62 215 C-62.54027832 215.40782715 -63.08055664 215.8156543 -63.63720703 216.23583984 C-76.579355 225.88565205 -92.28381715 236.01855793 -109 234 C-115.03729825 232.12952309 -119.53097016 229.31039013 -123.0625 224.0390625 C-133.92462991 200.41392994 -120.67503355 167.52832448 -112.48828125 145.0078125 C-67.01886054 22.3606835 -67.01886054 22.3606835 -30.4375 4.6875 C-20.07300474 0.16283676 -11.21386655 -0.2659415 0 0 Z " fill="#4E67AF" transform="translate(136,212)"/>
<path d="M0 0 C23.68318966 0 23.68318966 0 34.80078125 10.62890625 C41.96447408 18.35246139 44.30894044 26.03423616 44.3359375 36.421875 C44.3425943 37.32190247 44.3492511 38.22192993 44.35610962 39.14923096 C44.36620413 41.04868538 44.37092763 42.94817503 44.37060547 44.84765625 C44.37496543 47.72717007 44.41128213 50.60513322 44.44921875 53.484375 C44.53673245 67.36729125 43.28330953 76.43283141 33.37109375 86.80078125 C23.09703199 96.33010048 14.72567771 96 0 96 C0 64.32 0 32.64 0 0 Z " fill="#4E67AF" transform="translate(376,52)"/>
<path d="M0 0 C0 31.68 0 63.36 0 96 C-14.42720303 96 -20.812239 94.92057919 -30.80078125 85.37109375 C-37.96447408 77.64753861 -40.30894044 69.96576384 -40.3359375 59.578125 C-40.3425943 58.67809753 -40.3492511 57.77807007 -40.35610962 56.85076904 C-40.36620413 54.95131462 -40.37092763 53.05182497 -40.37060547 51.15234375 C-40.37496543 48.27282993 -40.41128213 45.39486678 -40.44921875 42.515625 C-40.53673245 28.63270875 -39.28330953 19.56716859 -29.37109375 9.19921875 C-20.30879427 0.79382401 -12.81610436 0 0 0 Z " fill="#4F68AF" transform="translate(136,52)"/>
<path d="M0 0 C1.24494232 -0.00953201 2.48988464 -0.01906403 3.77255249 -0.02888489 C5.13303658 -0.02862343 6.49352069 -0.02768623 7.85400391 -0.02612305 C9.25021492 -0.03001074 10.64642475 -0.03434556 12.04263306 -0.03910828 C14.96970451 -0.0465703 17.89665535 -0.04627983 20.82373047 -0.04101562 C24.56861482 -0.03522724 28.31300357 -0.05213622 32.05780602 -0.0753603 C34.94207632 -0.09011875 37.82622795 -0.09096639 40.71052933 -0.08785057 C42.09078578 -0.08836293 43.47104902 -0.09358477 44.85126877 -0.10366249 C46.78492181 -0.11604615 48.71867501 -0.10728218 50.65234375 -0.09765625 C52.30089859 -0.09860039 52.30089859 -0.09860039 53.98275757 -0.0995636 C58.77959199 0.50426938 61.24141208 2.40609213 64.26806641 6.0871582 C66.15700717 9.65515742 66.61624427 11.31059102 65.95556641 15.2746582 C63.61218194 19.70105108 61.42811111 22.07947078 56.95556641 24.2746582 C53.99621582 24.65560913 53.99621582 24.65560913 50.68408203 24.6628418 C49.43929077 24.67229828 48.19449951 24.68175476 46.9119873 24.6914978 C45.56192708 24.68612775 44.21186978 24.67997471 42.86181641 24.6730957 C41.46846362 24.67511832 40.07511187 24.67803132 38.6817627 24.68179321 C35.76658006 24.6862078 32.85167385 24.67981378 29.93652344 24.66577148 C26.20735926 24.64867969 22.47884289 24.65852558 18.74970245 24.67648888 C15.87399449 24.68735038 12.9984391 24.68386962 10.12272644 24.6761055 C8.74806135 24.67411001 7.37338222 24.67653983 5.99873352 24.68354416 C4.07484212 24.69119671 2.15090189 24.67745699 0.22705078 24.6628418 C-0.86595337 24.66045502 -1.95895752 24.65806824 -3.08508301 24.65560913 C-6.46230482 24.22086653 -8.32145945 23.28957976 -11.04443359 21.2746582 C-14.25901677 16.50820729 -14.75209225 12.84747015 -14.04443359 7.2746582 C-9.8975735 2.11910241 -6.56312281 0.02755388 0 0 Z " fill="#A3EDFE" transform="translate(230.04443359375,411.725341796875)"/>
<path d="M0 0 C3.61717638 2.69729101 6.15431014 4.82291241 8 9 C8.53952431 14.03556026 8.04234376 16.94354166 5 21 C2.26207212 24.19424919 0.02413173 24.87951391 -4.1875 25.375 C-8.01192332 24.99882721 -8.90465303 24.59880804 -11.875 22.5 C-15.63285291 19.93882258 -18.43209812 19.31327821 -22.95703125 19.5625 C-26.02000868 20.21843398 -27.78967446 21.85468404 -30 24 C-33.70602135 25.23534045 -36.09753614 25.45528745 -40 25 C-43.82209946 22.61307623 -46.56170311 20.31489068 -48 16 C-48.55322374 12.47319864 -48.6374336 10.05306429 -46.75390625 6.94140625 C-35.10287184 -7.29276743 -15.49859062 -9.01908796 0 0 Z " fill="#394253" transform="translate(316,87)"/>
<path d="M0 0 C4.33452435 2.68486716 8.22752233 5.95504466 10.53515625 10.5703125 C10.99329173 16.64060758 9.94592609 19.75774768 6.03515625 24.3203125 C3.62425691 26.32939528 1.35619426 26.59096196 -1.71484375 26.9453125 C-5.53765705 26.56303117 -6.04990999 26.35284572 -8.77734375 24.0703125 C-12.47205607 21.14289936 -15.52932147 20.90775679 -20.1640625 21.1328125 C-23.401087 21.74834178 -25.1675487 23.27301745 -27.46484375 25.5703125 C-31.1708651 26.80565295 -33.56237989 27.02559995 -37.46484375 26.5703125 C-41.28694321 24.18338873 -44.02654686 21.88520318 -45.46484375 17.5703125 C-46.00860471 14.10383635 -46.07794372 11.65793505 -44.32421875 8.546875 C-33.46692918 -5.20920548 -15.24235997 -7.33813754 0 0 Z " fill="#3A4253" transform="translate(233.46484375,85.4296875)"/>
<path d="M0 0 C3.51732742 1.28517733 5.4770624 2.37247488 7.875 5.25 C9.78372573 9.91577402 9.50878914 13.5301647 7.875 18.25 C5.55557782 21.65181919 3.87765844 22.65773362 0 24 C-3.58361927 24.58641043 -5.8399901 24.7333661 -8.96484375 22.7578125 C-13.10903171 19.35093405 -14.69964549 17.2312049 -15.4375 11.75 C-14.8560227 6.76590888 -12.62718402 4.32648483 -9 1 C-5.92805092 -0.53597454 -3.39755707 -0.2265038 0 0 Z " fill="#3A4354" transform="translate(299,308)"/>
<path d="M0 0 C3.51732742 1.28517733 5.4770624 2.37247488 7.875 5.25 C9.78372573 9.91577402 9.50878914 13.5301647 7.875 18.25 C5.55557782 21.65181919 3.87765844 22.65773362 0 24 C-3.58361927 24.58641043 -5.8399901 24.7333661 -8.96484375 22.7578125 C-13.10903171 19.35093405 -14.69964549 17.2312049 -15.4375 11.75 C-14.8560227 6.76590888 -12.62718402 4.32648483 -9 1 C-5.92805092 -0.53597454 -3.39755707 -0.2265038 0 0 Z " fill="#3B4455" transform="translate(259,308)"/>
<path d="M0 0 C4.08998175 1.80720124 6.66247347 4.19069751 9 8 C9.62819266 13.0255413 9.03320735 15.95572354 6 20 C3.73510066 22.68211764 2.16984179 23.49844827 -1.3125 23.9375 C-4.87911062 24.22166898 -6.00932049 23.99551236 -9.375 22.375 C-12.65064593 19.41132035 -14.7700969 17.43426808 -15.19921875 12.890625 C-15.05485148 8.36205156 -14.19690336 5.59480455 -10.875 2.4375 C-7.22294959 -0.25663555 -4.54845575 -0.75807596 0 0 Z " fill="#3A4253" transform="translate(219,308)"/>
</svg>
